<?xml version="1.0" encoding="UTF-8"?>
<svg id="Layer_1" data-name="Layer 1" xmlns="http://www.w3.org/2000/svg" viewBox="0 0 28 11.87">
  <defs>
    <style>
      .cls-1 {
        fill: #ff9c1d;
      }

      .cls-2 {
        fill: #ff9e1c;
      }
    </style>
  </defs>
  <g>
    <path d="m17.39,5.22s.03,0,.04.02l.12.13c-.07.09-.16.16-.27.21-.11.05-.23.07-.38.07-.13,0-.25-.02-.36-.07-.11-.05-.2-.11-.27-.19s-.13-.18-.17-.29c-.04-.11-.06-.24-.06-.37s.02-.26.06-.37.1-.21.18-.29c.08-.08.17-.14.28-.19.11-.04.23-.07.36-.07s.25.02.35.06c.1.04.19.1.26.17l-.1.14s-.01.02-.02.02c0,0-.02.01-.04.01-.02,0-.04,0-.06-.02-.02-.02-.05-.03-.08-.05s-.07-.04-.12-.05c-.05-.02-.11-.02-.19-.02-.09,0-.17.02-.24.05-.07.03-.13.07-.19.13s-.09.13-.12.21c-.03.08-.04.18-.04.28s.01.2.04.28c.03.08.07.15.12.21.05.06.12.1.19.13.07.03.15.05.23.05.05,0,.09,0,.13,0,.04,0,.08-.01.11-.03s.07-.03.09-.05c.03-.02.06-.04.09-.07.02-.02.03-.02.05-.02Z"/>
    <path d="m18.81,4.35v1.28h-.16s-.06-.02-.07-.05l-.02-.12s-.06.05-.08.08c-.03.02-.06.04-.09.06s-.07.03-.11.04-.08.01-.12.01c-.07,0-.13-.01-.19-.04s-.1-.06-.13-.1c-.04-.04-.06-.09-.08-.15-.02-.06-.03-.13-.03-.2v-.81h.27v.81c0,.09.02.15.06.2.04.05.1.07.18.07.06,0,.12-.01.17-.04.05-.03.1-.06.15-.11v-.93h.27Z"/>
    <path d="m19.41,3.77v1.86h-.27v-1.86h.27Z"/>
    <path d="m20.16,5.65c-.11,0-.19-.03-.25-.09-.06-.06-.09-.14-.09-.25v-.75h-.14s-.03,0-.04-.01c-.01,0-.02-.02-.02-.04v-.11l.21-.03.06-.37s.01-.03.02-.03.02-.01.04-.01h.14v.42h.36v.19h-.36v.73s.01.08.03.11.05.04.09.04c.02,0,.04,0,.05,0,.01,0,.03-.01.04-.02.01,0,.02-.01.03-.02s.02,0,.02,0c.01,0,.03,0,.04.03l.08.13s-.09.07-.15.08-.12.03-.18.03Z"/>
    <path d="m21.74,4.35v1.28h-.16s-.06-.02-.07-.05l-.02-.12s-.06.05-.08.08c-.03.02-.06.04-.09.06s-.07.03-.11.04-.08.01-.12.01c-.07,0-.13-.01-.19-.04s-.1-.06-.13-.1c-.04-.04-.06-.09-.08-.15-.02-.06-.03-.13-.03-.2v-.81h.27v.81c0,.09.02.15.06.2.04.05.1.07.18.07.06,0,.12-.01.17-.04.05-.03.1-.06.15-.11v-.93h.27Z"/>
    <path d="m22.33,4.58c.04-.08.09-.15.15-.19s.12-.07.2-.07c.03,0,.05,0,.08,0,.02,0,.05.02.07.03l-.02.2s0,.02-.02.03c0,0-.02,0-.03,0s-.03,0-.05,0c-.02,0-.05,0-.07,0-.04,0-.07,0-.1.02-.03.01-.05.03-.08.05-.02.02-.04.05-.06.08s-.03.06-.05.1v.79h-.27v-1.28h.16s.05,0,.06.02c.01.01.02.03.02.05l.02.17Z"/>
    <path d="m22.95,4.52c.14-.13.32-.2.52-.2.07,0,.14.01.2.04.06.02.11.06.14.1s.07.1.09.16c.02.06.03.13.03.2v.81h-.12s-.04,0-.06-.01c-.01,0-.02-.02-.03-.05l-.03-.1s-.06.06-.1.08c-.03.02-.06.04-.1.06-.03.02-.07.03-.11.04-.04,0-.08.01-.13.01-.05,0-.1,0-.14-.02-.04-.01-.08-.04-.12-.06s-.06-.06-.08-.11c-.02-.04-.03-.09-.03-.15,0-.05.01-.1.04-.14s.07-.09.13-.13.14-.07.24-.09c.1-.02.22-.04.37-.04v-.08c0-.09-.02-.16-.06-.21-.04-.04-.1-.07-.17-.07-.05,0-.1,0-.13.02-.04.01-.07.03-.09.04-.03.01-.05.03-.07.04-.02.01-.04.02-.06.02-.02,0-.03,0-.05-.01s-.02-.02-.03-.04l-.05-.09Zm.71.54c-.1,0-.18.01-.24.02s-.12.03-.16.05-.07.04-.09.07c-.02.03-.03.05-.03.09s0,.06.01.08.02.04.04.05c.02.01.04.02.06.03.02,0,.05,0,.08,0,.07,0,.13-.01.18-.04s.1-.06.15-.11v-.24Z"/>
    <path d="m24.51,3.77v1.86h-.27v-1.86h.27Z"/>
  </g>
  <g>
    <path d="m15.17,6.37v2.71h-.44v-1.21h-1.36v1.21h-.44v-2.71h.44v1.19h1.36v-1.19h.44Z"/>
    <path d="m15.64,7.42c.22-.2.48-.3.78-.3.11,0,.21.02.29.05.09.04.16.09.22.15s.1.14.13.23c.03.09.05.19.05.3v1.22h-.18s-.07,0-.09-.02c-.02-.01-.04-.04-.05-.07l-.04-.16s-.1.08-.14.12c-.05.03-.1.06-.15.09-.05.02-.11.04-.16.05-.06.01-.12.02-.19.02-.08,0-.15-.01-.22-.03-.07-.02-.12-.05-.17-.1s-.09-.1-.12-.16c-.03-.06-.04-.14-.04-.23,0-.07.02-.15.06-.22.04-.07.11-.13.2-.19s.21-.1.36-.14c.15-.04.33-.06.55-.06v-.13c0-.14-.03-.24-.09-.31-.06-.07-.15-.1-.26-.1-.08,0-.14,0-.2.03-.05.02-.1.04-.14.06-.04.02-.07.04-.1.06-.03.02-.06.03-.1.03-.03,0-.05,0-.07-.02-.02-.01-.04-.03-.05-.05l-.07-.13Zm1.07.81c-.14,0-.27.02-.37.03-.1.02-.18.04-.24.07s-.11.06-.13.1-.04.08-.04.13,0,.08.02.12c.01.03.03.06.06.08.03.02.06.04.09.04.03,0,.07.01.11.01.1,0,.2-.02.27-.06.08-.04.15-.1.22-.17v-.36Z"/>
    <path d="m17.96,7.51c.06-.12.13-.22.22-.29.08-.07.19-.1.31-.1.04,0,.08,0,.12.01.04,0,.07.02.1.04l-.03.3s-.01.04-.02.04c0,0-.02.01-.04.01-.02,0-.05,0-.08,0s-.07-.01-.11-.01c-.06,0-.11,0-.15.02-.04.02-.08.04-.12.07-.03.03-.06.07-.09.11-.03.05-.05.1-.07.15v1.19h-.41v-1.92h.24s.07,0,.09.02c.02.02.03.04.03.08l.02.25Z"/>
    <path d="m18.96,9.07v-1.92h.25c.05,0,.09.03.11.08l.03.17s.07-.08.11-.11c.04-.03.08-.06.12-.09.04-.03.09-.04.14-.06s.1-.02.16-.02c.06,0,.12,0,.17.03.05.02.1.04.14.08.04.03.07.07.1.12.03.05.05.1.07.16.03-.07.07-.12.11-.17.04-.05.09-.09.15-.12s.11-.05.17-.07c.06-.01.12-.02.19-.02.1,0,.19.02.28.05.08.03.15.08.21.14.06.06.1.14.13.23.03.09.04.19.04.31v1.22h-.41v-1.22c0-.14-.03-.24-.09-.31s-.14-.1-.26-.1c-.05,0-.1,0-.14.03-.05.02-.08.04-.12.08s-.06.08-.08.13-.03.11-.03.18v1.22h-.41v-1.22c0-.14-.03-.24-.08-.31-.06-.07-.14-.1-.25-.1-.08,0-.14.02-.21.06-.06.04-.12.09-.18.16v1.41h-.41Z"/>
    <path d="m22.92,7.13c.14,0,.27.02.38.07.11.05.21.11.29.2s.14.19.19.31c.04.12.07.26.07.41s-.02.29-.07.41c-.04.12-.11.22-.19.31s-.18.15-.29.2c-.12.05-.24.07-.38.07s-.27-.02-.39-.07c-.12-.05-.21-.11-.29-.2-.08-.09-.14-.19-.19-.31-.04-.12-.07-.26-.07-.41s.02-.29.07-.41c.04-.12.11-.23.19-.31.08-.08.18-.15.29-.2.12-.05.24-.07.39-.07Zm0,1.66c.17,0,.3-.06.39-.17.08-.12.13-.28.13-.5s-.04-.38-.13-.5c-.08-.12-.21-.18-.39-.18s-.31.06-.39.18c-.08.12-.13.28-.13.5s.04.38.13.5c.09.12.22.17.39.17Z"/>
    <path d="m24.61,7.41s.08-.08.13-.12c.04-.03.09-.06.14-.09.05-.02.1-.04.16-.06.06-.01.12-.02.18-.02.11,0,.2.02.28.05.08.03.15.08.2.15.05.06.1.14.12.23.03.09.04.19.04.3v1.22h-.4v-1.22c0-.13-.03-.23-.09-.3s-.15-.11-.27-.11c-.09,0-.17.02-.25.06-.08.04-.15.1-.22.17v1.4h-.41v-1.92h.25c.05,0,.09.03.11.08l.03.18Z"/>
    <path d="m28,7.16l-1.06,2.46s-.03.05-.05.07-.05.02-.09.02h-.3l.35-.77-.78-1.79h.35s.06,0,.08.02c.02.02.03.03.04.06l.46,1.09s.02.06.03.09c0,.03.02.06.03.09.01-.03.02-.06.03-.1.01-.03.02-.06.03-.09l.44-1.09s.02-.04.04-.06c.02-.02.04-.02.07-.02h.32Z"/>
  </g>
  <g>
    <g>
      <path class="cls-1" d="m4.85,6.13c-.05,0-.11-.01-.15-.04l-2.68-1.53s-.05-.02-.08-.02-.05,0-.08.02c-.02.01-.04.03-.06.06-.01.02-.02.05-.02.08v1.44c0,.05.01.11.04.16.03.05.07.09.12.11l2.76,1.53s.1.04.15.04.1-.01.15-.04l2.76-1.53s.09-.07.12-.11c.03-.05.04-.1.04-.16v-1.44s0-.05-.02-.08c-.01-.02-.03-.04-.06-.06-.02-.01-.05-.02-.08-.02s-.05,0-.08.02l-2.68,1.53s-.1.04-.15.04Z"/>
      <path class="cls-1" d="m9.44,2.73h0c0-.05-.02-.1-.05-.14-.03-.04-.06-.07-.11-.1L5,.04s-.1-.04-.15-.04-.11.01-.15.04L.41,2.49s-.09.07-.11.11c-.03.05-.04.1-.04.15s.01.11.04.15c.03.05.07.09.11.11l4.29,2.45s.1.04.15.04.11-.01.15-.04l3.78-2.16s.01,0,.02,0,.01,0,.02,0c0,0,.01,0,.01.01,0,0,0,.01,0,.02v2.77c0,.16.13.31.29.31.04,0,.08,0,.12-.02.04-.01.07-.04.1-.07.03-.03.05-.06.07-.1.02-.04.02-.08.02-.12v-3.37s0-.02,0-.03Z"/>
    </g>
    <g>
      <path class="cls-2" d="m9.56,10.78h.03c0,.1-.08.17-.17.17H.22c-.12,0-.22-.1-.22-.22v-.05c0-.12.1-.22.22-.22h8.8s0,0,0,0c.2-.02.35-.18.35-.38,0-.15-.09-.29-.22-.35-.05-.02-.11-.04-.16-.04,0,0-.02,0-.02,0-.04,0-.08.01-.12.03-.02,0-.03.01-.05.01H.13c-.07,0-.13-.06-.13-.13v-.06s.02-.08.06-.11l.83-.54c.09-.06.2-.09.31-.09h7.18c.18,0,.35.06.48.18l.28.24s.04.06.04.09h0c0,.05.04.1.1.09,0,0,.01,0,.02,0,.02,0,.04,0,.06,0h0c.1.02.19.11.25.22.06.1.09.24.09.38,0,.17-.04.32-.12.43-.03.04-.06.08-.1.11-.08.07-.04.21.07.21,0,0,0,0,0,0Z"/>
      <rect class="cls-2" x="0" y="11.56" width="9.59" height=".31" rx=".16" ry=".16"/>
    </g>
  </g>
</svg>