<?xml version="1.0" encoding="UTF-8"?>
<svg id="Layer_1" data-name="Layer 1" xmlns="http://www.w3.org/2000/svg" viewBox="0 0 300.2 300.2">
  <defs>
    <style>
      .cls-1 {
        fill: #bc8a32;
      }

      .cls-2 {
        fill: #131b1f;
      }
    </style>
  </defs>
  <rect class="cls-2" width="300.2" height="300.2"/>
  <g>
    <g>
      <g>
        <path class="cls-1" d="m125.94,86.99c-6.74,0-12.2,5.46-12.2,12.2s5.46,12.2,12.2,12.2,12.2-5.47,12.2-12.2-5.46-12.2-12.2-12.2Zm-4.67,19.82c-1.68,0-3.05-1.37-3.05-3.05s1.37-3.05,3.05-3.05,3.05,1.36,3.05,3.05-1.37,3.05-3.05,3.05Zm0-9.15c-1.68,0-3.05-1.37-3.05-3.05s1.37-3.05,3.05-3.05,3.05,1.36,3.05,3.05-1.37,3.05-3.05,3.05Zm9.33,9.15c-1.68,0-3.05-1.37-3.05-3.05s1.37-3.05,3.05-3.05,3.05,1.36,3.05,3.05-1.37,3.05-3.05,3.05Zm0-9.15c-1.68,0-3.05-1.37-3.05-3.05s1.37-3.05,3.05-3.05,3.05,1.36,3.05,3.05-1.37,3.05-3.05,3.05Z"/>
        <path class="cls-1" d="m153.72,80.89c-8.42,0-15.25,6.83-15.25,15.25s6.83,15.25,15.25,15.25,15.25-6.83,15.25-15.25-6.83-15.25-15.25-15.25Zm-5.83,24.78c-2.11,0-3.81-1.7-3.81-3.81s1.71-3.81,3.81-3.81,3.81,1.71,3.81,3.81-1.71,3.81-3.81,3.81Zm0-11.43c-2.11,0-3.81-1.71-3.81-3.81s1.71-3.81,3.81-3.81,3.81,1.71,3.81,3.81-1.71,3.81-3.81,3.81Zm11.66,11.43c-2.1,0-3.81-1.7-3.81-3.81s1.71-3.81,3.81-3.81,3.81,1.71,3.81,3.81-1.71,3.81-3.81,3.81Zm0-11.43c-2.1,0-3.81-1.71-3.81-3.81s1.71-3.81,3.81-3.81,3.81,1.71,3.81,3.81-1.71,3.81-3.81,3.81Z"/>
        <path class="cls-1" d="m128.76,122.7c-1.68,0-3.05,1.37-3.05,3.05s1.37,3.05,3.05,3.05,3.05-1.37,3.05-3.05-1.37-3.05-3.05-3.05Zm8.83,0c-1.68,0-3.05,1.37-3.05,3.05s1.37,3.05,3.05,3.05,3.05-1.37,3.05-3.05-1.36-3.05-3.05-3.05Zm0,0c-1.68,0-3.05,1.37-3.05,3.05s1.37,3.05,3.05,3.05,3.05-1.37,3.05-3.05-1.36-3.05-3.05-3.05Zm-8.83,0c-1.68,0-3.05,1.37-3.05,3.05s1.37,3.05,3.05,3.05,3.05-1.37,3.05-3.05-1.37-3.05-3.05-3.05Zm8.83,0c-1.68,0-3.05,1.37-3.05,3.05s1.37,3.05,3.05,3.05,3.05-1.37,3.05-3.05-1.36-3.05-3.05-3.05Zm-8.83,0c-1.68,0-3.05,1.37-3.05,3.05s1.37,3.05,3.05,3.05,3.05-1.37,3.05-3.05-1.37-3.05-3.05-3.05Z"/>
        <path class="cls-1" d="m176.01,120.45h-10.81v-5.13c0-1.8-1.46-3.25-3.25-3.25h-42.16c-1.8,0-3.25,1.46-3.25,3.25v1.87h-1.41l-4.98-2.87v11.85l4.99-2.88h1.4v16.95c0,1.8,1.46,3.25,3.25,3.25h2.55v2.92l-6.34,5.91c-.33-.06-.67.04-.93.28l-8.1,7.56c-.22.2-.34.48-.35.76,0,.28.09.57.3.78.41.44,1.11.47,1.55.06l8.1-7.56c.22-.2.34-.48.35-.76,0-.04,0-.09,0-.14l7.25-6.76h22.57v-3.05h15.22c1.8,0,3.25-1.46,3.25-3.25v-4.34h11.14l13.71,6.38v-28.35l-14.04,6.53Zm-31.18,8.5c0,1.79-1.46,3.25-3.25,3.25h-16.81c-1.8,0-3.25-1.46-3.25-3.25v-6.41c0-1.8,1.46-3.25,3.25-3.25h16.81c1.8,0,3.25,1.46,3.25,3.25v6.41Zm24.45,2.81c0,.83-.67,1.5-1.5,1.5h-.26c-.83,0-1.5-.67-1.5-1.5v-7.18c0-.83.67-1.49,1.5-1.49h.26c.83,0,1.5.67,1.5,1.49v7.18Zm4.56,0c0,.83-.67,1.5-1.5,1.5h-.26c-.83,0-1.5-.67-1.5-1.5v-7.18c0-.83.67-1.49,1.5-1.49h.26c.83,0,1.5.67,1.5,1.49v7.18Z"/>
      </g>
      <polygon class="cls-1" points="102.54 124.98 66.88 124.98 81.92 150.84 18.45 155.29 90.81 155.97 75.88 129.88 105.73 129.88 102.54 124.98"/>
      <polygon class="cls-1" points="197.66 124.98 233.32 124.98 218.28 150.84 281.75 155.29 209.39 155.97 224.32 129.88 194.47 129.88 197.66 124.98"/>
    </g>
    <g>
      <path class="cls-1" d="m79.37,174.93c5.35,0,8.11,3.2,8.11,8.81v1.1h-5.2v-1.45c0-2.5-1-3.45-2.75-3.45s-2.75.95-2.75,3.45,1.1,4.45,4.7,7.6c4.6,4.05,6.05,6.96,6.05,10.96,0,5.6-2.8,8.81-8.21,8.81s-8.21-3.2-8.21-8.81v-2.15h5.2v2.5c0,2.5,1.1,3.4,2.85,3.4s2.85-.9,2.85-3.4-1.1-4.45-4.7-7.6c-4.6-4.05-6.05-6.96-6.05-10.96,0-5.6,2.75-8.81,8.11-8.81Z"/>
      <path class="cls-1" d="m89.08,175.33h17.01v5h-5.75v30.02h-5.5v-30.02h-5.75v-5Z"/>
      <path class="cls-1" d="m124.41,210.35h-5.55l-.95-6.35h-6.75l-.95,6.35h-5.05l5.6-35.02h8.06l5.6,35.02Zm-12.56-11.11h5.3l-2.6-17.71h-.1l-2.6,17.71Z"/>
      <path class="cls-1" d="m138.47,210.35c-.3-.9-.5-1.45-.5-4.3v-5.5c0-3.25-1.1-4.45-3.6-4.45h-1.9v14.26h-5.5v-35.02h8.31c5.7,0,8.16,2.65,8.16,8.06v2.75c0,3.6-1.15,5.9-3.6,7.05v.1c2.75,1.15,3.65,3.75,3.65,7.41v5.4c0,1.7.05,2.95.6,4.25h-5.6Zm-6-30.02v10.76h2.15c2.05,0,3.3-.9,3.3-3.7v-3.45c0-2.5-.85-3.6-2.8-3.6h-2.65Z"/>
      <path class="cls-1" d="m147.07,175.33h5.5v30.02h9.06v5h-14.56v-35.02Z"/>
      <path class="cls-1" d="m164.04,175.33h5.5v35.02h-5.5v-35.02Z"/>
      <path class="cls-1" d="m181.8,190.84h7.71v11.11c0,5.6-2.8,8.81-8.21,8.81s-8.21-3.2-8.21-8.81v-18.21c0-5.6,2.8-8.81,8.21-8.81s8.21,3.2,8.21,8.81v3.4h-5.2v-3.75c0-2.5-1.1-3.45-2.85-3.45s-2.85.95-2.85,3.45v18.91c0,2.5,1.1,3.4,2.85,3.4s2.85-.9,2.85-3.4v-6.45h-2.5v-5Z"/>
      <path class="cls-1" d="m198.56,210.35h-5.5v-35.02h5.5v15.01h6.25v-15.01h5.6v35.02h-5.6v-15.01h-6.25v15.01Z"/>
      <path class="cls-1" d="m212.82,175.33h17.01v5h-5.75v30.02h-5.5v-30.02h-5.75v-5Z"/>
    </g>
  </g>
</svg>